# xmcd
#
# Track frame offsets:
#	150
#	13026
#	26459
#	41264
#	53794
#	67689
#	80624
#	93914
#	106799
#	118761
#	131243
#	144855
#	158535
#	171500
#	181445
#	194670
#	208350
#	222245
#	233555
#	246150
#	259115
#	272083
#	290940
#	315967
#	337924
#
# Disc length: 4644 seconds
#
# Revision: 1
# Processed by: cddbd v1.5.2PL0 Copyright (c) Steve Scherf et al.
# Submitted via: audiograbber 1.83.01
#
DISCID=66122219
DTITLE=Willie Dixon - Giant of the Blues [CD2)
DYEAR=2008
DGENRE=Blues
TTITLE0=My sweet lovin' woman
TTITLE1=Black angel blues (Sweet black angel)
TTITLE2=Third degree
TTITLE3=I'm your hoochie coochie man
TTITLE4=I'm ready
TTITLE5=I just wanna make love to you
TTITLE6=Don't go no further
TTITLE7=I love the life I live, I live the life I love
TTITLE8=My baby [Mercy baby]
TTITLE9=(I love you so) Oh baby
TTITLE10=Crazy for my baby
TTITLE11=Sloppy drunk
TTITLE12=When the lights go out
TTITLE13=I can't make it with you
TTITLE14=Do me right
TTITLE15=Loving you
TTITLE16=Tollin' bells
TTITLE17=Diddy wah diddy
TTITLE18=Pretty thing
TTITLE19=Seventh son
TTITLE20=Evil
TTITLE21=Shake for me
TTITLE22=Little red rooster
TTITLE23=Wang dang doodle
TTITLE24=Built for comport
EXTD=
EXTT0=
EXTT1=
EXTT2=
EXTT3=
EXTT4=
EXTT5=
EXTT6=
EXTT7=
EXTT8=
EXTT9=
EXTT10=
EXTT11=
EXTT12=
EXTT13=
EXTT14=
EXTT15=
EXTT16=
EXTT17=
EXTT18=
EXTT19=
EXTT20=
EXTT21=
EXTT22=
EXTT23=
EXTT24=
PLAYORDER=
